<?xml version="1.0" encoding="UTF-8"?>
<svg id="Pattern" xmlns="http://www.w3.org/2000/svg" version="1.1" viewBox="0 0 1920 1914">
  <!-- Generator: Adobe Illustrator 30.0.0, SVG Export Plug-In . SVG Version: 2.1.1 Build 123)  -->
  <path d="M1920,28.6V-.4H0v1914.8h29v-289.5h166.1v289.5h29v-289.5h23.2l232.7,169.3v120.2h29v-289.5h166.1v289.5h29v-289.5h23.2l232.7,169.3v120.2h29v-289.5h166.1v289.5h29v-289.5h23.2l232.7,169.3v120.2h29v-289.5h166.1v289.5h29v-289.5h23.2l232.7,169.3v-37l-226.3-163.1c-26.2-22.7-35.6-54.9-25.1-86.1,11.1-33,41.6-55.8,77.8-58.1h173.6v-29h-174.4s-.2,0-.2,0c-43.8,2.5-83.1,28.5-100.2,66.1-11.5,25.3-10.8,53.1-10.1,80.1.2,9.5.5,19.3.2,28.8h-166.2v-290.8h451v-29h-255.9v-289.5h23.2l232.7,169.3v-37l-226.3-163.1c-26.2-22.7-35.6-54.9-25.1-86.1,11.1-33,41.6-55.8,77.8-58.1h173.6v-29h-174.4s-.2,0-.2,0c-43.8,2.5-83.1,28.5-100.2,66.1-11.5,25.3-10.8,53.1-10.1,80.1.2,9.5.5,19.3.2,28.8h-166.2v-290.8h451v-29h-255.9v-289.5h23.2l232.7,169.3v-37l-226.3-163.1c-26.2-22.7-35.6-54.9-25.1-86.1,11.1-33,41.6-55.8,77.8-58.1h173.6v-29h-174.4s-.2,0-.2,0c-43.8,2.5-83.1,28.5-100.2,66.1-11.5,25.3-10.8,53.1-10.1,80.1.2,9.5.5,19.3.2,28.8h-166.2V28.6h451ZM29,348.4h166.1v289.5H29v-289.5ZM29,986.7h166.1v289.5H29v-289.5ZM480,1757.3l-226.3-163.1c-26.2-22.7-35.6-54.9-25.1-86.1,11.1-33,41.6-55.8,77.8-58.1h173.6v307.3ZM480,1421h-174.4s-.2,0-.2,0c-43.8,2.5-83.1,28.5-100.2,66.1-11.5,25.3-10.8,53.1-10.1,80.1.2,9.5.5,19.3.2,28.8H29v-290.8h451v115.8ZM480,1276.1h-255.9v-289.5h23.2l232.7,169.3v120.2ZM480,1119l-226.3-163.1c-26.2-22.7-35.6-54.9-25.1-86.1,11.1-33,41.6-55.8,77.8-58.1h173.6v307.3ZM480,782.7h-174.4s-.2,0-.2,0c-43.8,2.5-83.1,28.5-100.2,66.1-11.5,25.3-10.8,53.1-10.1,80.1.2,9.5.5,19.3.2,28.8H29v-290.8h451v115.8ZM480,637.9h-255.9v-289.5h23.2l232.7,169.3v120.2ZM480,480.7l-226.3-163.1c-26.2-22.7-35.6-54.9-25.1-86.1,11.1-33,41.6-55.8,77.8-58.1h173.6v307.3ZM480,144.4h-174.4s-.2,0-.2,0c-43.8,2.5-83.1,28.5-100.2,66.1-11.5,25.3-10.8,53.1-10.1,80.1.2,9.5.5,19.3.2,28.8H29V28.6h451v115.8ZM509,348.4h166.1v289.5h-166.1v-289.5ZM509,986.7h166.1v289.5h-166.1v-289.5ZM960,1757.3l-226.3-163.1c-26.2-22.7-35.6-54.9-25.1-86.1,11.1-33,41.6-55.8,77.8-58.1h173.6v307.3ZM960,1421h-174.4s-.2,0-.2,0c-43.8,2.5-83.1,28.5-100.2,66.1-11.5,25.3-10.8,53.1-10.1,80.1.2,9.5.5,19.3.1,28.8h-166.2v-290.8h451v115.8ZM960,1276.1h-255.9v-289.5h23.2l232.7,169.3v120.2ZM960,1119l-226.3-163.1c-26.2-22.7-35.6-54.9-25.1-86.1,11.1-33,41.6-55.8,77.8-58.1h173.6v307.3ZM960,782.7h-174.4s-.2,0-.2,0c-43.8,2.5-83.1,28.5-100.2,66.1-11.5,25.3-10.8,53.1-10.1,80.1.2,9.5.5,19.3.1,28.8h-166.2v-290.8h451v115.8ZM960,637.9h-255.9v-289.5h23.2l232.7,169.3v120.2ZM960,480.7l-226.3-163.1c-26.2-22.7-35.6-54.9-25.1-86.1,11.1-33,41.6-55.8,77.8-58.1h173.6v307.3ZM960,144.4h-174.4s-.2,0-.2,0c-43.8,2.5-83.1,28.5-100.2,66.1-11.5,25.3-10.8,53.1-10.1,80.1.2,9.5.5,19.3.1,28.8h-166.2V28.6h451v115.8ZM989,348.4h166.1v289.5h-166.1v-289.5ZM989,986.7h166.1v289.5h-166.1v-289.5ZM1440,1757.3l-226.3-163.1c-26.2-22.7-35.6-54.9-25.1-86.1,11.1-33,41.6-55.8,77.8-58.1h173.6v307.3ZM1440,1421h-174.4s-.2,0-.2,0c-43.8,2.5-83.1,28.5-100.2,66.1-11.5,25.3-10.8,53.1-10.1,80.1.2,9.5.5,19.3.1,28.8h-166.2v-290.8h451v115.8ZM1440,1276.1h-255.9v-289.5h23.2l232.7,169.3v120.2ZM1440,1119l-226.3-163.1c-26.2-22.7-35.6-54.9-25.1-86.1,11.1-33,41.6-55.8,77.8-58.1h173.6v307.3ZM1440,782.7h-174.4s-.2,0-.2,0c-43.8,2.5-83.1,28.5-100.2,66.1-11.5,25.3-10.8,53.1-10.1,80.1.2,9.5.5,19.3.1,28.8h-166.2v-290.8h451v115.8ZM1440,637.9h-255.9v-289.5h23.2l232.7,169.3v120.2ZM1440,480.7l-226.3-163.1c-26.2-22.7-35.6-54.9-25.1-86.1,11.1-33,41.6-55.8,77.8-58.1h173.6v307.3ZM1440,144.4h-174.4s-.2,0-.2,0c-43.8,2.5-83.1,28.5-100.2,66.1-11.5,25.3-10.8,53.1-10.1,80.1.2,9.5.5,19.3.1,28.8h-166.2V28.6h451v115.8ZM1635.1,986.7v289.5h-166.1v-289.5h166.1ZM1635.1,348.4v289.5h-166.1v-289.5h166.1Z"/>
</svg>