<svg xmlns="http://www.w3.org/2000/svg" xmlns:xlink="http://www.w3.org/1999/xlink" viewBox="0 0 40 40"><defs><style>.cls-1{fill:none;}.cls-2{clip-path:url(#clip-path);}.cls-3{fill:#dbc79a;}.cls-4{fill:#292728;}</style><clipPath id="clip-path"><rect class="cls-1" width="40" height="40"/></clipPath></defs><g class="cls-2"><path class="cls-3" d="M0,40H40V0H0Z"/><path class="cls-4" d="M7.34,16.57H4.76v1H7.3c1.32,0,2.72.55,2.72,2.4s-1.4,2.4-2.72,2.4H5.81V18.61h-1v4.82H7.34c2,0,3.78-1.07,3.78-3.43S9.3,16.57,7.34,16.57Z"/><path class="cls-4" d="M13.33,19.22a2.48,2.48,0,0,1,2.38-1.75,2.29,2.29,0,0,1,2.35,1.75Zm2.4-2.8a3.58,3.58,0,1,0,0,7.16,3.48,3.48,0,0,0,3.42-2.33H18a2.27,2.27,0,0,1-2.25,1.28,2.46,2.46,0,0,1-2.52-2.29h6a3.11,3.11,0,0,0,0-.39A3.46,3.46,0,0,0,15.73,16.42Z"/><path class="cls-4" d="M23.72,17.47A2.3,2.3,0,0,1,26,18.76h1.17a3.48,3.48,0,0,0-3.41-2.34,3.58,3.58,0,1,0,0,7.16,3.48,3.48,0,0,0,3.41-2.33H26a2.23,2.23,0,0,1-2.24,1.28,2.53,2.53,0,0,1,0-5.06Z"/><path class="cls-4" d="M31.63,22.54a2.54,2.54,0,1,1,0-5.08A2.46,2.46,0,0,1,34.17,20,2.51,2.51,0,0,1,31.63,22.54Zm2.56-6v1.1a3.28,3.28,0,0,0-2.66-1.25,3.58,3.58,0,0,0,0,7.16,3.28,3.28,0,0,0,2.66-1.25v1.1h1.05V16.57Z"/></g></svg>