<?xml version="1.0" encoding="UTF-8"?>
<svg id="Camada_1" data-name="Camada 1" xmlns="http://www.w3.org/2000/svg" viewBox="0 0 200 51.06">
  <defs>
    <style>
      .cls-1, .cls-2 {
        fill: #fff;
      }

      .cls-2, .cls-3, .cls-4 {
        fill-rule: evenodd;
      }

      .cls-3 {
        fill: #ff6b00;
      }

      .cls-5 {
        fill: #1d1d1b;
      }
    </style>
  </defs>
  <g>
    <path class="cls-3" d="M184.68,1.02h-5.72l-13.27,15.87,7.37,14.78h11.61c8.46,0,15.32-6.86,15.32-15.32s-6.86-15.32-15.32-15.32"/>
    <path class="cls-4" d="M193.57,11.69c-.27-1-.7-1.97-1.29-2.83-.01-.02-.03-.04-.04-.06,0,0,.37-2.01,0-3.51-.14-.56-.38-1.09-.72-1.55-.36-.5-.84-.92-1.41-1.16-.4-.16-.82-.25-1.25-.24-.37,0-.75.07-1.1.2-.7.27-1.29.79-1.65,1.45-.13.24-.22.49-.28.75,0,0-.02.01-.03.01-1.09.18-1.98,1.17-2.27,2.2-.03.09-.05.19-.07.29,0,.05-.02.09-.02.14,0,.02,0,.04,0,.07,0,.02,0,.04,0,.06.16-.16.3-.33.48-.48.19-.15.39-.28.61-.39.4-.2.83-.31,1.27-.34.42-.02.83.07,1.19.27.33.19.61.47.79.8.15.28.23.59.24.9.02.95-.76,1.77-1.65,1.97-.39.09-.79.1-1.19.13-1.96.16-3.87.85-5.55,1.87-1.92,1.17-3.64,2.78-4.89,4.64-.89,1.32-1.57,2.78-2,4.32-.26.95-.44,1.93-.52,2.92-.03.35-.05.7-.05,1.04,0,.07,0,.32,0,.5l1.49-.38-.11,1.89,1.49.73,2.6-2.8c.86.16,1.75.24,2.65.24.16,0,.33,0,.48-.01-.09,0-.09.63-.1.7-.02.36-.03.72,0,1.08.08.91.43,1.95.89,2.74-.77.3-1.46.76-2.03,1.34h4.93c1.06,0,2.1-.11,3.1-.32-.85-.73-1.89-1.22-3.06-1.38-.81-1.3-1.01-2.97-.69-4.44,0-.01.02-.13.03-.13.28-.06.57-.13.83-.22,1.23-.37,2.41-.9,3.51-1.56,1.01-.61,1.95-1.33,2.78-2.17.89-.9,1.65-1.93,2.15-3.1.33-.76.55-1.56.67-2.38.18-1.26.1-2.56-.23-3.79M177.45,23.6s-.1,0-.13.03l-2.74,2.69.12-2.25-1.27.16s0-.02,0-.04c.57-4,2.85-7.7,6.17-10.07,1.03-.73,2.12-1.42,3.3-1.9.93-.37,1.92-.61,2.93-.62.93,0,1.73.39,2.34,1.07.56.62.86,1.43.89,2.26.06,1.64-.88,3.16-2.1,4.21-.53.45-1.12.84-1.71,1.21-1.53.95-3.15,1.76-4.85,2.37-.97.35-1.96.65-2.97.88M182.54,28.83c-.03-.06-.06-.11-.08-.17-.36-.94-.34-1.93,0-2.81-.1.66-.04,1.34.21,2.01.1.27.32.63.49.89-.21.02-.41.05-.61.08M192.14,16.4c-.34,1.21-.92,2.37-1.73,3.35-.76.92-1.69,1.71-2.73,2.31-1.01.59-2.1,1.08-3.22,1.4-.82.25-1.65.42-2.5.53-.76.1-1.58.18-2.35.1.57-.06,1.13-.16,1.68-.29.5-.1.98-.25,1.47-.42.13-.04.27-.09.4-.13.7-.26,1.37-.57,2.01-.92.95-.51,1.83-1.13,2.65-1.85.04-.03.08-.07.12-.1.23-.2.46-.42.68-.63.05-.05.1-.1.15-.16l.41-.45c.89-1.08,1.43-2.47,1.43-3.99v-.14c-.02-.65-.13-1.29-.34-1.88-.28-.81-.92-1.89-1.67-2.47,0,0,1.14-1.44.56-3.25-.4-1.24-1.55-1.77-2.37-1.78.17-.64.32-.87.36-.94.18-.35.45-.65.81-.84.26-.14.55-.21.84-.21.33,0,.66.09.95.26,0,0,1.5.65,1.5,3.18,0,.99-.06,1.54-.13,1.85.67,1.08,1.1,2.31,1.28,3.56.18,1.3.09,2.63-.26,3.9"/>
    <path class="cls-2" d="M189.09,14.94c.06,1.64-.88,3.16-2.1,4.21-.53.45-1.12.84-1.71,1.21-1.53.95-3.15,1.76-4.85,2.37-.97.35-1.96.65-2.97.88-.03,0-.1,0-.13.03l-2.74,2.69.12-2.25-1.27.16s0-.02,0-.04c.57-4,2.85-7.7,6.17-10.07,1.03-.73,2.12-1.42,3.3-1.9.93-.37,1.92-.61,2.93-.62.93,0,1.73.39,2.34,1.07.56.62.86,1.43.89,2.26"/>
    <path class="cls-2" d="M191.12,8.94c.07-.31.13-.86.13-1.85,0-2.53-1.5-3.18-1.5-3.18-.29-.17-.62-.26-.95-.26-.29,0-.58.07-.84.21-.36.19-.63.48-.81.84-.03.07-.19.3-.36.94.82,0,1.97.54,2.37,1.78.58,1.81-.56,3.25-.56,3.25.75.57,1.4,1.66,1.67,2.47.2.6.32,1.23.34,1.89v.14c0,1.52-.54,2.91-1.43,3.99l-.41.45c-.04.05-.1.1-.15.16-.22.22-.45.43-.68.63-.04.04-.07.07-.12.1-.82.72-1.7,1.33-2.65,1.85-.64.36-1.31.66-2.01.92-.13.04-.26.1-.4.13-.48.17-.97.31-1.47.42-.55.13-1.11.23-1.68.29.77.08,1.58,0,2.35-.1.84-.11,1.68-.28,2.5-.53,1.12-.32,2.21-.82,3.22-1.4,1.04-.6,1.97-1.39,2.73-2.31.8-.97,1.39-2.13,1.73-3.35.35-1.26.44-2.6.26-3.9-.18-1.26-.61-2.48-1.28-3.56"/>
    <path d="M14.07,31.67h158.99l-7.37-14.78,13.27-15.87H16.38c-2.36,0-4.69.5-6.82,1.47C4.73,4.7,1.17,9.26.28,14.4c-.68,3.88-.1,7.63,1.63,10.56,1.59,2.7,4.15,4.78,7.21,5.87,1.59.56,3.27.84,4.96.84"/>
    <path class="cls-2" d="M22.03,5.6c-3.6-1.52-7.75-1.63-11.33,0-3.87,1.77-6.79,5.42-7.52,9.62-.5,2.85-.25,5.92,1.24,8.45,1.24,2.1,3.27,3.7,5.57,4.51,2.45.86,5.18.87,7.65.08.2-.06.4-.14.59-.2l1.56-8.4c-1.25.81-2.78,1.39-4.28,1.44-1.24.04-2.54-.38-3.34-1.33-.57-.68-.84-1.57-.87-2.46-.08-1.74.78-3.54,2.27-4.44.91-.55,2-.76,3.07-.71,1.27.06,2.54.48,3.67,1.03.21.1.42.22.62.33l1.44-7.76-.34-.17"/>
    <path class="cls-1" d="M99.91,17.65v-1.66s-.03-.32-.03-.32v-.32s-.03-.32-.03-.32v-.31s-.03-.31-.03-.31l-.03-.31v-.31s-.04-.31-.04-.31l-.03-.31v-.3s-.05-.3-.05-.3l-.76-7.5h-8.43l-6.54,21.88-2.86-21.88h-9.16l-11.13,21.33-2.66-7.09.34-.08.32-.09.31-.1.31-.1.3-.12.29-.13.27-.14.27-.16.26-.16.25-.17.25-.18.22-.19.22-.21.22-.21.19-.22.19-.23.18-.25.17-.25.16-.26.16-.27.13-.27.12-.27.12-.3.1-.28.08-.31.08-.31.06-.32.05-.32.04-.34.04-.34v-.35s.01-.36.01-.36v-.41l-.04-.41-.05-.39-.06-.39-.09-.36-.12-.36-.13-.34-.16-.34-.17-.31-.19-.31-.21-.28-.23-.28-.26-.26-.27-.26-.28-.25-.32-.22-.32-.22-.36-.19-.36-.19-.4-.17-.4-.16-.43-.16-.45-.13-.47-.12-.48-.1-.5-.09-.53-.08-.53-.05-.57-.05-.57-.04h-.61s-.61-.03-.61-.03h-8.92l-4.26,23.15h8.34l1.57-8.41,2.51,8.41h16l1.26-3.08h5.57l.16,3.08h15.54l2.32-8.25.14-.49.13-.48.12-.48.1-.48.1-.47.08-.45.08-.47.05-.45,1.31,12.02h4.75l4.02-8.65.22-.48.22-.48.19-.48.2-.47.18-.47.18-.45.16-.45.16-.43-1.01,12.36h7.72l1.09-23.15h-8.45l-5.56,12.59ZM55.52,12.92v.16s-.04.14-.04.14v.16s-.05.13-.05.13l-.04.14-.04.13-.05.12-.06.13-.06.1-.08.12-.08.09-.09.1-.09.09-.1.09-.12.08-.12.08-.12.06-.13.06-.14.06-.16.05-.16.05-.16.05-.18.04-.36.06-.4.05-.43.03h-.47s-.62.01-.62.01l.84-4.51h.87s.35.04.35.04l.32.03.31.05.27.06.25.08.22.1.19.1.08.06.09.06.06.06.08.08.06.08.05.08.05.09.05.09.04.09.04.1.04.1.03.1.03.22v.25s.01.17.01.17ZM72.44,19.66l2.79-7.18.18,7.18h-2.97Z"/>
    <polygon class="cls-1" points="38.67 19.44 39.73 13.57 32.63 13.57 33.06 11.34 40.61 11.34 41.75 5.06 25.87 5.06 21.6 28.21 38.19 28.21 39.34 21.94 31.12 21.94 31.57 19.44 38.67 19.44"/>
    <polygon class="cls-1" points="127.07 14.13 127.6 11.34 134.47 11.34 135.63 5.06 120.27 5.06 116.01 28.21 124.47 28.21 125.96 20.21 132.49 20.21 133.62 14.13 127.07 14.13"/>
    <polygon class="cls-1" points="137.76 5.06 133.47 28.21 141.99 28.21 146.27 5.06 137.76 5.06"/>
    <polygon class="cls-1" points="172.33 5.06 162.07 5.06 158.86 10.05 156.87 5.06 147.48 5.06 152.92 15.85 142.56 28.21 153.22 28.21 156.94 22.92 158.97 28.21 168.38 28.21 162.68 16.78 172.33 5.06"/>
  </g>
  <g>
    <path class="cls-5" d="M96.26,44.33h.64v4.36h-.64v-.45c-.38.29-.73.58-1.25.58-.64,0-1.16-.34-1.16-1.48v-3.01h.64v2.85c0,.46.08,1.13.6,1.13.4,0,.91-.37,1.17-.66v-3.31Z"/>
    <path class="cls-5" d="M98.43,48.69h-.64v-4.36h.64v.39c.4-.31.73-.51,1.26-.51.49,0,.86.2,1.1.59.42-.32.82-.59,1.39-.59.64,0,1.16.34,1.16,1.48v3.01h-.64v-2.85c0-.46.08-1.13-.6-1.13-.47,0-.94.3-1.21.58v3.4h-.64v-2.85c0-.46.08-1.13-.6-1.13-.55,0-.88.29-1.21.58v3.4Z"/>
    <path class="cls-5" d="M106.77,48.69l-.07-.55c-.37.35-.78.68-1.32.68-.7,0-1.26-.56-1.26-1.25,0-1.25,1.37-1.52,2.37-1.78l.21-.06v-.24c0-.5-.35-.77-.87-.77s-.85.32-1.11.69l-.45-.32c.38-.52.87-.88,1.57-.88.62,0,1.51.36,1.51,1.36v2.16c0,.32,0,.66.12.96h-.7ZM106.45,46.31c-.61.17-1.72.41-1.72,1.19,0,.36.3.73.68.73.51,0,.98-.34,1.29-.71v-1.28l-.26.07Z"/>
    <path class="cls-5" d="M111.07,46.61c0,1.25.55,1.68,1.21,1.68.48,0,.88-.37,1.11-.75l.46.29c-.25.56-.86.98-1.64.98-1.01,0-1.82-.67-1.82-2.3s.81-2.3,1.82-2.3c1.31,0,1.69,1.34,1.6,2.41h-2.74ZM113.14,46.09c.02-.56-.3-1.37-.97-1.37-.73,0-1.07.75-1.08,1.37h2.05Z"/>
    <path class="cls-5" d="M115.27,48.69h-.64v-4.36h.64v.39c.4-.31.73-.51,1.26-.51.49,0,.86.2,1.1.59.42-.32.82-.59,1.39-.59.64,0,1.16.34,1.16,1.48v3.01h-.64v-2.85c0-.46.08-1.13-.6-1.13-.47,0-.94.3-1.21.58v3.4h-.64v-2.85c0-.46.08-1.13-.6-1.13-.55,0-.88.29-1.21.58v3.4Z"/>
    <path class="cls-5" d="M121.73,50.04h-.64v-5.71h.64v.45c.3-.3.7-.58,1.14-.58.78,0,1.69.68,1.69,2.39s-1.05,2.22-1.67,2.22c-.5,0-.86-.26-1.16-.62v1.85ZM121.73,47.46c.18.37.62.81,1.07.81s1.08-.42,1.08-1.7c0-.65-.19-1.84-1.09-1.84-.49,0-.87.32-1.06.7v2.02Z"/>
    <path class="cls-5" d="M125.98,45.27h.02c.26-.52.59-1,1.26-1h.25v.56c-.84-.11-1.28.76-1.53,1.39v2.47h-.64v-4.36h.64v.94Z"/>
    <path class="cls-5" d="M128.45,46.61c0,1.25.55,1.68,1.21,1.68.48,0,.88-.37,1.11-.75l.46.29c-.25.56-.86.98-1.64.98-1.01,0-1.82-.67-1.82-2.3s.81-2.3,1.82-2.3c1.31,0,1.69,1.34,1.6,2.41h-2.74ZM130.52,46.09c.02-.56-.3-1.37-.97-1.37-.73,0-1.07.75-1.08,1.37h2.05Z"/>
    <path class="cls-5" d="M134.55,45.3c-.26-.36-.56-.58-1.04-.58-.42,0-.82.21-.82.65,0,1.07,2.4.6,2.4,2.07,0,.85-.63,1.37-1.49,1.37-.73,0-1.33-.31-1.7-.92l.51-.31c.25.45.64.7,1.19.7.47,0,.89-.24.89-.74,0-1.1-2.4-.58-2.4-2.14,0-.75.64-1.21,1.39-1.21.63,0,1.16.25,1.52.76l-.45.34Z"/>
    <path class="cls-5" d="M138.4,48.69l-.07-.55c-.37.35-.78.68-1.32.68-.7,0-1.26-.56-1.26-1.25,0-1.25,1.37-1.52,2.37-1.78l.21-.06v-.24c0-.5-.35-.77-.87-.77s-.85.32-1.11.69l-.45-.32c.38-.52.87-.88,1.57-.88.62,0,1.51.36,1.51,1.36v2.16c0,.32,0,.66.12.96h-.7ZM138.08,46.31c-.61.17-1.72.41-1.72,1.19,0,.36.3.73.68.73.51,0,.98-.34,1.29-.71v-1.28l-.26.07Z"/>
    <path class="cls-5" d="M147.04,48.69h-1.31l-.42-1.54h-1.9l-.42,1.54h-1.31l1.8-6.14h1.73l1.83,6.14ZM144.38,43.6h-.03l-.68,2.57h1.38l-.68-2.57Z"/>
    <path class="cls-5" d="M149.96,42.55c1.48,0,2.05,1.01,2.05,1.79,0,.67-.44,1.29-1.09,1.55l1.28,2.8h-1.35l-1.15-2.55h-.98v2.55h-1.29v-6.14h2.53ZM149.27,45.1c.56,0,1.42.03,1.42-.73,0-.85-.87-.77-1.5-.77h-.48v1.51h.56Z"/>
    <path class="cls-5" d="M154.43,42.55c2.44,0,3.3,1.33,3.3,3.07s-.95,3.07-2.86,3.07h-2.01v-6.14h1.57ZM154.77,47.65c1.02,0,1.64-.62,1.64-2.17,0-1.29-.58-1.89-1.78-1.89h-.49v4.06h.63Z"/>
    <path class="cls-5" d="M162.49,43.59h-2.7v1.47h2.24v1.04h-2.24v1.55h2.86v1.04h-4.15v-6.14h3.99v1.04Z"/>
    <path class="cls-5" d="M166.36,45.56l1.95,3.13h-1.5l-1.16-2.01-1.23,2.01h-1.43l1.96-3.13-1.79-3.02h1.5l1.03,1.97,1.11-1.97h1.43l-1.88,3.02Z"/>
    <path class="cls-5" d="M172.47,44.35c-.18-.72-.52-1.4-1.46-1.4-.89,0-1.65.81-1.65,2.67s.76,2.67,1.65,2.67c1.19,0,1.5-1.06,1.43-1.99h-1.3v-.55h1.98v2.94h-.58v-.6c-.35.46-.9.73-1.53.73-1.34,0-2.32-1.18-2.32-3.2s.99-3.2,2.32-3.2c1.18,0,1.9.77,2.11,1.78l-.65.15Z"/>
    <path class="cls-5" d="M175.61,42.55c1.99,0,2.33,1.01,2.33,1.72s-.49,1.33-1.21,1.56l1.23,2.86h-.75l-1.16-2.76h-1.28v2.76h-.68v-6.14h1.52ZM174.77,45.37h.91c1.33,0,1.59-.56,1.59-1.13,0-.84-.55-1.14-1.47-1.14h-1.03v2.27Z"/>
    <path class="cls-5" d="M183.3,45.62c0,2.02-.99,3.2-2.32,3.2s-2.32-1.18-2.32-3.2.99-3.2,2.32-3.2,2.32,1.18,2.32,3.2ZM179.32,45.62c0,1.86.76,2.67,1.65,2.67s1.65-.81,1.65-2.67-.76-2.67-1.65-2.67-1.65.81-1.65,2.67Z"/>
    <path class="cls-5" d="M188.22,46.76c0,1.65-1.13,2.05-2.04,2.05s-2.04-.4-2.04-2.05v-4.21h.68v3.76c0,.95.07,1.89,1.36,1.89s1.36-.93,1.36-1.89v-3.76h.68v4.21Z"/>
    <path class="cls-5" d="M190.97,42.55c1.6,0,2.1.97,2.1,1.68,0,.75-.46,1.7-2.21,1.7h-.98v2.76h-.68v-6.14h1.76ZM189.89,45.37h.56c.88,0,1.95-.03,1.95-1.14,0-1.17-1.15-1.14-2.04-1.14h-.47v2.27Z"/>
  </g>
</svg>