<?xml version="1.0" encoding="UTF-8"?><svg id="Layer_1" xmlns="http://www.w3.org/2000/svg" width="492.08" height="134.85" viewBox="0 0 492.08 134.85"><defs><style>.cls-1{fill:#231f20;}</style></defs><path class="cls-1" d="M164.23,97.46v-56.67h4.82v56.67h-4.82ZM235.7,97.46v-47.36l-21.02,47.35h-4.66l-21.03-47.35v47.36h-4.82v-56.67h5.95l22.22,51.16,22.22-51.16h5.96v56.67h-4.82ZM307.19,97.46v-47.36l-21.03,47.35h-4.66l-21.03-47.35v47.36h-4.82v-56.67h5.95l22.22,51.16,22.22-51.16h5.96v56.67h-4.82ZM332.66,44.83v21.39h28.03v4.04h-28.03v23.16h30.58v4.04h-35.4v-56.67h35.4v4.04h-30.58ZM399,40.79c11.37,0,17.98,7.24,17.98,17.67,0,9.31-5.05,15.88-14.08,17.24l16.1,21.76h-5.7l-15.37-21.28h-17.41v21.28h-4.82v-56.67h23.3ZM380.5,72.23h18.05c8.72,0,13.62-5.33,13.62-13.75s-4.98-13.71-13.62-13.71h-18.05v27.46ZM430.84,87.39c4.3,4.4,12.71,6.97,20.83,6.97,9.1,0,17.99-3.39,17.99-11.57,0-9.62-9.15-10.36-20.19-12.43-9.92-1.85-19.16-4.38-19.16-14.81s11.48-15.75,23.32-15.75c6.73,0,13.64,1.61,18.7,4.67l-2.82,3.46c-4.42-2.74-10.4-4.18-16.41-4.18-9.29,0-17.88,3.75-17.88,11.58s7.77,9.56,15.65,11.05c12.24,2.33,23.89,3.77,23.89,16.4,0,10.86-11.62,15.67-23.2,15.67-8.95,0-18.62-2.81-23.61-7.78l2.91-3.27ZM487.26,97.46v-56.67h4.82v56.67h-4.82ZM41.53,12.05v13.71h10.8V0H14.4v46.79H0v47.07s2.21,24.37,27.69,27.42v13.57s10.45-.48,15.99-12.11l46.66-.07s3.27,10.28,15.17,12.19v-13.71s21.74-.14,28.24-22.98v-50.95l-107.58-.11V12.09M105.08,108.68H31.7s-18.14,1.11-18.14-19.94h106.36s2.6,15.9-14.85,19.94ZM120.13,74.21H13.57v-13.43h106.57v13.43Z"/></svg>