<?xml version="1.0" encoding="utf-8"?>
<!-- Generator: Adobe Illustrator 26.0.2, SVG Export Plug-In . SVG Version: 6.00 Build 0)  -->
<svg version="1.0" id="Camada_1" xmlns="http://www.w3.org/2000/svg" xmlns:xlink="http://www.w3.org/1999/xlink" x="0px" y="0px"
	 viewBox="0 0 431.84 66.67" style="enable-background:new 0 0 431.84 66.67;" xml:space="preserve">
<style type="text/css">
	.st0{fill-rule:evenodd;clip-rule:evenodd;fill:#FFFFFF;}
</style>
<g>
	<polygon class="st0" points="5.83,5.07 25.2,5.07 42.07,36.2 58.7,5.07 67.95,5.07 38.32,61.29 	"/>
	<polygon class="st0" points="170.59,61.29 185.98,61.29 203.91,29.09 222.17,61.29 232.71,61.29 200.28,5.07 	"/>
	<rect x="70.28" y="5.07" class="st0" width="14.54" height="56.22"/>
	<polygon class="st0" points="103.72,53.61 126.12,53.61 126.12,61.29 103.72,61.29 89.17,61.29 89.17,53.61 89.17,5.07 
		103.72,5.07 	"/>
	<polygon class="st0" points="144.27,53.61 166.67,53.61 166.67,61.29 144.27,61.29 129.73,61.29 129.73,53.61 129.73,5.07 
		144.27,5.07 	"/>
	<path class="st0" d="M264.93,61.6c-21.89-0.13-39.68-12.74-39.68-28.18c0-15.44,17.79-28.05,39.68-28.18l12.54-0.17v8.75h-12.54
		c-14.38,0-26.11,8.99-26.11,20.01c0,11.02,11.73,20.01,26.11,20.01l4.03,0V27.16h8.51v26.67v7.77L264.93,61.6z"/>
	<path class="st0" d="M296.45,53.88v7.72h-13.43v-7.72V5.07h1.12h12.31v0l7.56,0c0.07,0,0.13,0,0.2,0
		c10.36,0,22.26,8.35,22.26,18.58c0,9.63-5.85,17.59-15.18,18.5l15.52,19.45h-11.73l-15.39-19.37l-3.24,0V53.88L296.45,53.88z
		 M296.45,13.82v21.22l5.29,0c0.04,0,0.08,0,0.12,0c6.08,0,11.04-4.77,11.04-10.61c0-5.85-4.96-10.61-11.04-10.61
		c-0.04,0-0.08,0-0.12,0L296.45,13.82z"/>
	<polygon class="st0" points="344.25,29.08 365.47,29.08 365.47,36.55 344.25,36.55 344.25,53.88 365.47,53.88 365.47,61.6 
		344.25,61.6 330.48,61.6 330.48,53.88 330.48,5.07 342.11,5.07 344.25,5.07 365.47,5.07 365.47,13.82 344.25,13.82 	"/>
	<path class="st0" d="M413.75,35.48c4.23,2.72,6.92,6.78,6.92,11.31c0,8-8.42,14.55-18.86,14.8v0.01h-0.63h-26.74v-7.77h9.6h13.52
		l0,0c0.01,0,0.01,0,0.02,0h1.47c3.71-0.18,6.46-1.76,6.67-4.14c0.19-2.12-1.69-4.36-4.62-5.9l-14.23-7.05l-9.57-4.71l0.03-0.03
		c-5.02-2.68-8.31-7.12-8.31-12.12c0-8.03,8.48-14.6,18.98-14.81V5.07h25.88v8.75h-7.58h-14.06h-0.9h-2.74
		c-2.84,0.31-4.88,1.62-5.05,3.52c-0.18,2.06,1.89,4.25,4.98,5.56l14.3,7.02L413.75,35.48z"/>
	<g>
		<path class="st0" d="M419.37,12.37V6.62h2.55c0.51,0,0.9,0.05,1.17,0.16c0.27,0.1,0.48,0.29,0.64,0.55
			c0.16,0.26,0.24,0.55,0.24,0.87c0,0.41-0.13,0.75-0.4,1.03c-0.26,0.28-0.67,0.46-1.22,0.53c0.2,0.1,0.35,0.19,0.46,0.29
			c0.22,0.2,0.43,0.46,0.63,0.76l1,1.57h-0.96l-0.76-1.2c-0.22-0.34-0.41-0.61-0.55-0.79c-0.14-0.18-0.27-0.31-0.39-0.38
			c-0.11-0.07-0.23-0.12-0.35-0.15c-0.09-0.02-0.23-0.03-0.42-0.03h-0.88v2.55H419.37L419.37,12.37z M420.13,9.16h1.64
			c0.35,0,0.62-0.04,0.82-0.11c0.2-0.07,0.35-0.19,0.45-0.35c0.1-0.16,0.15-0.33,0.15-0.52c0-0.27-0.1-0.5-0.3-0.67
			c-0.2-0.18-0.51-0.26-0.94-0.26h-1.82V9.16z"/>
		<path class="st0" d="M421.58,5.07L421.58,5.07L421.58,5.07c1.22,0,2.33,0.5,3.13,1.3c0.8,0.8,1.29,1.91,1.3,3.13h0v0v0h0
			c0,1.22-0.5,2.33-1.3,3.13c-0.8,0.8-1.91,1.3-3.13,1.3v0h0h0v0c-1.22,0-2.33-0.5-3.13-1.3c-0.8-0.8-1.29-1.91-1.3-3.13h0v0v0h0
			c0-1.22,0.5-2.33,1.3-3.13l0,0C419.25,5.57,420.36,5.07,421.58,5.07L421.58,5.07L421.58,5.07L421.58,5.07z M421.59,5.39
			L421.59,5.39L421.59,5.39L421.59,5.39L421.59,5.39c-1.14,0-2.16,0.46-2.91,1.2h0c-0.74,0.74-1.2,1.77-1.2,2.9h0v0v0h0
			c0,1.13,0.46,2.16,1.2,2.9c0.74,0.74,1.77,1.2,2.9,1.2v0h0h0v0c1.13,0,2.16-0.46,2.9-1.2c0.74-0.74,1.2-1.77,1.2-2.9h0v0v0h0
			c0-1.13-0.46-2.16-1.2-2.9C423.75,5.85,422.72,5.39,421.59,5.39z"/>
	</g>
</g>
</svg>
