<svg width="943" height="166" viewBox="0 0 943 166" fill="none" xmlns="http://www.w3.org/2000/svg">
<g clip-path="url(#clip0_634_1308)">
<path d="M232.729 120.718C229.767 120.714 226.927 119.537 224.832 117.443C222.737 115.349 221.559 112.511 221.556 109.55V103.414H230.838V111.195H286.092V89.2894H232.729C229.767 89.2862 226.927 88.1086 224.832 86.0151C222.737 83.9215 221.559 81.0829 221.556 78.1222V59.6164C221.562 56.6578 222.742 53.8224 224.836 51.7314C226.931 49.6405 229.769 48.4647 232.729 48.4614H284.177C287.136 48.4647 289.973 49.6409 292.065 51.7322C294.158 53.8235 295.335 56.6589 295.338 59.6164V65.7523H286.092V57.972H230.838V79.8402H284.226C285.667 79.7961 287.103 80.0401 288.449 80.5581C289.795 81.0761 291.024 81.8576 292.064 82.8566C293.103 83.8557 293.933 85.0522 294.504 86.3761C295.074 87.6999 295.375 89.1243 295.387 90.5657V109.587C295.384 112.546 294.207 115.382 292.115 117.476C290.023 119.569 287.186 120.748 284.226 120.754L232.729 120.718Z" fill="#081214"/>
<path d="M343.36 121.135V57.8738H311.312V48.3877H385.095V57.8738H352.827V121.135H343.36Z" fill="#081214"/>
<path d="M588.368 120.718V59.6164C588.375 56.6578 589.554 53.8224 591.649 51.7314C593.743 49.6405 596.581 48.4647 599.542 48.4614H657.251V57.9352H597.602V79.8402H640.368V89.3263H597.602V120.754L588.368 120.718Z" fill="#081214"/>
<path d="M507.207 120.718C504.244 120.714 501.404 119.537 499.309 117.443C497.215 115.349 496.036 112.511 496.033 109.55V48.4614H505.267V111.231H560.594V48.4614H569.828V109.55C569.825 112.511 568.646 115.349 566.552 117.443C564.457 119.537 561.617 120.714 558.654 120.718H507.207Z" fill="#081214"/>
<path d="M772.401 120.717C769.44 120.711 766.603 119.532 764.511 117.438C762.419 115.345 761.243 112.508 761.239 109.55V47.5039H770.473V111.231H823.271V120.717H772.401Z" fill="#081214"/>
<path d="M942.153 47.5039H932.919V120.717H942.153V47.5039Z" fill="#081214"/>
<path d="M734.472 57.8981H679.218V87.7429H734.472V57.8981ZM734.472 120.717V97.2168H679.218V120.717H669.923V59.5916C669.926 56.6308 671.104 53.7923 673.199 51.6987C675.294 49.6051 678.134 48.4276 681.096 48.4243H732.532C735.494 48.4276 738.334 49.6051 740.429 51.6987C742.524 53.7923 743.702 56.6308 743.705 59.5916V120.717H734.472Z" fill="#081214"/>
<path d="M459.282 120.717L424.386 85.792H465.618V57.8615H410.303V120.717H401.069V58.6714C401.069 52.7074 405.772 48.3877 412.243 48.3877H463.678C470.161 48.3877 474.852 52.7074 474.852 58.6714V84.1107C474.848 87.0715 473.67 89.9101 471.575 92.0036C469.481 94.0972 466.641 95.2748 463.678 95.278H448.256L473.771 120.717H459.282Z" fill="#081214"/>
<path d="M901.093 57.677H849.928V111.489H901.093V57.677ZM840.56 120.717L840.695 48.4487H899.411C902.371 48.4552 905.208 49.6342 907.3 51.7274C909.393 53.8207 910.569 56.6574 910.572 59.616V109.55C910.569 112.508 909.393 115.345 907.3 117.438C905.208 119.531 902.371 120.711 899.411 120.717H840.56Z" fill="#081214"/>
<path d="M51.9506 109.832V0L8.97536 42.9511C7.39936 44.524 6.14908 46.392 5.29603 48.4483C4.44299 50.5045 4.00391 52.7086 4.00391 54.9345C4.00391 57.1605 4.44299 59.3647 5.29603 61.4209C6.14908 63.4771 7.39936 65.345 8.97536 66.9179L51.9506 109.832Z" fill="#BA2B40"/>
<path d="M118.317 56.1553V166L162.521 121.821C163.94 120.405 165.066 118.722 165.834 116.87C166.602 115.018 166.998 113.033 166.998 111.029C166.998 109.024 166.602 107.039 165.834 105.187C165.066 103.335 163.94 101.652 162.521 100.235L118.317 56.1553Z" fill="#BA2B40"/>
<path d="M61.5771 6.05601e-09L118.317 56.1556H170.268L121.067 6.99499C116.572 2.51539 110.483 -0.000142516 104.135 6.05601e-09H61.5771Z" fill="#3D6E38"/>
<path d="M108.691 166L51.951 109.832H0L49.2128 158.993C53.7008 163.477 59.7865 165.998 66.1328 166H108.691Z" fill="#3D6E38"/>
<path d="M506.236 155.839C511.872 155.839 512.375 153.237 512.375 151.004C512.375 148.77 511.798 145.997 506.236 145.997H500.846V155.814L506.236 155.839ZM498.169 143.8H506.003C514.279 143.8 514.966 147.948 514.966 151.004C514.966 154.059 514.586 158.035 506.371 158.035H500.846V165.767H498.169V143.8Z" fill="#081214"/>
<path d="M532.438 163.914C535.938 163.914 538.725 161.913 538.725 158.036V156.808L532.709 157.643C529.111 158.121 527.797 158.87 527.797 160.699C527.797 162.785 529.553 163.889 532.438 163.889M525.071 160.723C525.071 157.532 527.306 156.195 532.291 155.618L538.676 154.857C538.676 151.397 537.608 150.022 533.175 150.022C529.16 150.022 528.092 151.667 528.092 154.268H525.55C525.55 150.587 527.097 147.96 533.151 147.96C540.223 147.96 541.255 150.979 541.255 155.643V165.742H539.806L539.253 162.171C538.295 164.331 535.57 165.939 531.886 165.939C528.202 165.939 525.12 164.331 525.12 160.723" fill="#081214"/>
<path d="M551.876 159.202H554.332C554.332 162.196 556.014 163.877 560.103 163.877C563.786 163.877 565.149 162.331 565.149 160.993C565.149 156.489 552.207 159.238 552.207 152.955C552.207 150.218 554.197 148.046 559.685 148.046C565.174 148.046 567.212 150.685 567.212 154.526H564.756C564.756 151.789 563.381 150.108 559.575 150.108C555.449 150.108 554.725 151.618 554.725 152.992C554.725 157.066 567.58 154.526 567.58 160.919C567.58 163.374 565.518 166.025 560.09 166.025C554.283 166.025 551.667 163.73 551.778 159.263" fill="#081214"/>
<path d="M578.865 160.613V150.317H576.409V148.709L578.865 148.12V143.8H581.321V148.194H586.92V150.317H581.394V160.613C581.394 162.772 582.352 163.766 585.716 163.766C586.097 163.766 586.478 163.766 586.944 163.766V165.889C586.404 165.889 585.888 165.963 585.397 165.963C580.83 165.963 578.877 164.454 578.877 160.637" fill="#081214"/>
<path d="M597.54 148.194H600.082V165.742H597.54V148.194ZM598.854 142.181C599.984 142.181 600.745 142.426 600.745 143.727C600.745 145.028 599.984 145.31 598.854 145.31C597.725 145.31 596.89 144.966 596.89 143.727C596.89 142.487 597.651 142.181 598.854 142.181Z" fill="#081214"/>
<path d="M614.338 141.505H611.796V165.767H614.338V141.505Z" fill="#081214"/>
<path d="M625.978 141.493H628.519V151.102C629.207 149.249 630.975 147.985 634.659 147.985C640.577 147.985 641.743 151.102 641.743 156.293V165.742H639.165V156.06C639.165 152.071 638.44 150.194 633.983 150.194C629.526 150.194 628.519 151.973 628.519 156.06V165.742H625.978V141.493Z" fill="#081214"/>
<path d="M659.903 163.914C663.403 163.914 666.19 161.913 666.19 158.036V156.808L660.186 157.643C656.576 158.121 655.274 158.87 655.274 160.699C655.274 162.785 657.018 163.889 659.903 163.889M652.536 160.723C652.536 157.532 654.771 156.195 659.756 155.618L666.141 154.857C666.141 151.397 665.073 150.022 660.652 150.022C656.625 150.022 655.569 151.667 655.569 154.268H653.027C653.027 150.587 654.562 147.96 660.616 147.96C667.688 147.96 668.719 150.979 668.719 155.643V165.742H667.271L666.73 162.171C665.76 164.331 663.047 165.939 659.363 165.939C655.679 165.939 652.598 164.331 652.598 160.723" fill="#081214"/>
<path d="M679.34 159.202H681.796C681.796 162.196 683.478 163.877 687.567 163.877C691.25 163.877 692.613 162.331 692.613 160.993C692.613 156.489 679.672 159.238 679.672 152.955C679.672 150.218 681.661 148.046 687.162 148.046C692.663 148.046 694.676 150.685 694.676 154.526H692.22C692.159 151.789 690.845 150.108 687.039 150.108C682.913 150.108 682.201 151.618 682.201 152.992C682.201 157.066 695.045 154.526 695.045 160.919C695.045 163.374 692.982 166.025 687.555 166.025C681.747 166.025 679.144 163.73 679.242 159.263" fill="#081214"/>
<path d="M721.714 154.784C721.714 148.734 723.777 143.592 731.807 143.592C738.855 143.592 741.63 147.678 741.63 152.305H738.892C738.781 148.734 736.792 145.825 731.807 145.825C725.839 145.825 724.44 149.801 724.44 154.784C724.44 159.766 725.852 163.742 731.807 163.742C736.829 163.742 738.781 160.92 738.953 157.214H741.63C741.63 162.122 738.892 165.963 731.807 165.963C723.74 165.963 721.714 160.821 721.714 154.784Z" fill="#081214"/>
<path d="M766.053 155.986C766.053 152.611 764.542 150.046 760.552 150.046C756.095 150.046 754.818 152.82 754.719 155.986H766.053ZM752.006 156.87C752.006 152.341 753.786 147.985 760.761 147.985C766.9 147.985 768.729 151.863 768.729 156.735C768.729 157.213 768.729 157.557 768.729 158.035H754.719C754.891 161.508 756.463 163.938 760.724 163.938C764.407 163.938 765.746 162.122 766.053 160.257H768.729C768.459 163.275 766.433 165.951 760.797 165.951C753.614 165.951 752.006 161.594 752.006 156.857" fill="#081214"/>
<path d="M779.547 148.194H780.775L781.561 151.213C782.248 149.421 784.176 147.531 788.265 147.985V150.317C783.243 149.74 782.187 152.305 782.187 156.122V165.743H779.608L779.547 148.194Z" fill="#081214"/>
<path d="M803.895 163.914C807.395 163.914 810.182 161.913 810.182 158.035V156.808L804.166 157.643C800.556 158.121 799.254 158.87 799.254 160.698C799.254 162.785 801.01 163.889 803.895 163.889M797.842 144.868L804.718 141.775L811.692 144.868V147.003L804.718 143.874L797.842 147.003V144.868ZM796.614 160.723C796.614 157.532 798.849 156.195 803.822 155.618L810.219 154.857C810.219 151.396 809.151 150.022 804.718 150.022C800.703 150.022 799.635 151.666 799.635 154.268H797.093C797.093 150.587 798.64 147.96 804.681 147.96C811.754 147.96 812.785 150.979 812.785 155.643V165.742H811.349L810.796 162.171C809.838 164.331 807.112 165.939 803.429 165.939C799.745 165.939 796.663 164.331 796.663 160.723" fill="#081214"/>
<path d="M824.217 148.193H825.445L826.243 150.93C826.857 149.396 828.613 147.985 831.866 147.985C834.887 147.985 836.471 149.212 837.122 151.421C837.637 149.568 839.356 147.985 842.856 147.985C847.767 147.985 848.799 151.249 848.799 155.569V165.742H846.159V155.409C846.159 152.219 845.434 150.194 842.107 150.194C838.779 150.194 837.846 152.145 837.846 155.409V165.742H835.231V155.409C835.231 152.219 834.445 150.194 831.117 150.194C827.79 150.194 826.857 152.145 826.857 155.409V165.742H824.278L824.217 148.193Z" fill="#081214"/>
<path d="M860.205 148.194H862.747V165.742H860.205V148.194ZM861.507 142.181C862.649 142.181 863.398 142.426 863.398 143.727C863.398 145.028 862.649 145.31 861.507 145.31C860.365 145.31 859.555 144.966 859.555 143.727C859.555 142.487 860.304 142.181 861.507 142.181Z" fill="#081214"/>
<path d="M873.564 156.98C873.564 152.304 875.283 147.985 882.049 147.985C887.439 147.985 889.882 150.758 889.882 155.127H887.267C887.095 151.961 885.659 150.218 882.012 150.218C877.37 150.218 876.143 153.2 876.143 156.98C876.143 160.76 877.37 163.84 882.049 163.84C885.732 163.84 887.132 162.024 887.267 158.931H889.882C889.882 163.324 887.513 166 882.147 166C875.246 166 873.552 161.68 873.552 157.017" fill="#081214"/>
<path d="M907.76 163.914C911.272 163.914 914.047 161.913 914.047 158.036V156.808L908.042 157.643C904.432 158.121 903.131 158.87 903.131 160.699C903.131 162.785 904.887 163.889 907.76 163.889M900.454 160.723C900.454 157.532 902.689 156.195 907.662 155.618L914.047 154.857C914.047 151.397 912.991 150.022 908.558 150.022C904.543 150.022 903.475 151.667 903.475 154.268H900.933C900.933 150.587 902.48 147.96 908.521 147.96C915.594 147.96 916.625 150.979 916.625 155.643V165.742H915.188L914.636 162.171C913.678 164.331 910.952 165.939 907.269 165.939C903.585 165.939 900.503 164.331 900.503 160.723" fill="#081214"/>
<path d="M927.197 159.202H929.653C929.653 162.196 931.335 163.877 935.411 163.877C939.095 163.877 940.47 162.331 940.47 160.993C940.47 156.489 927.516 159.238 927.516 152.955C927.516 150.218 929.505 148.046 935.006 148.046C940.507 148.046 942.521 150.685 942.521 154.526H940.126C940.053 151.789 938.751 150.108 934.932 150.108C930.819 150.108 930.095 151.618 930.095 152.992C930.095 157.066 942.938 154.526 942.938 160.919C942.938 163.374 940.875 166.025 935.448 166.025C929.653 166.025 927.037 163.73 927.135 159.263" fill="#081214"/>
</g>
<defs>
<clipPath id="clip0_634_1308">
<rect width="943" height="166" fill="white"/>
</clipPath>
</defs>
</svg>
