<svg xmlns="http://www.w3.org/2000/svg" viewBox="0 0 512 512">
  <rect width="512" height="512" rx="64" fill="#2F2E2C"/>
  <path fill="#E7DED2" d="M256 24C141.9 24 48 117.9 48 232c0 58.6 24.4 111.5 63.6 149.2C152 420.3 201.5 444 256 444s104-23.7 144.4-62.8C439.6 343.5 464 290.6 464 232 464 117.9 370.1 24 256 24Z" opacity="0"/>
  <g transform="translate(106,56) scale(0.586)">
    <path fill="#E7DED2" d="M503.1,29.9H104.4c-41.1,0-74.5,33.4-74.5,74.5v537c0,41.1,33.4,74.5,74.5,74.5h398.7c41.1,0,74.5-33.4,74.5-74.5V104.4c0-41.1-33.4-74.5-74.5-74.5ZM242.7,686H104.4c-24.6,0-44.7-20-44.7-44.7v-252.9h182.9v297.6ZM547.7,641.3c0,24.6-20,44.7-44.7,44.7h-230.6v-297.6h23.8l251.4,182.9v70ZM547.7,533.2l-244.8-176.4c-27-23.3-36.6-56.4-25.8-88.5,11.4-33.9,42.8-57.3,80-59.7h190.6s0,324.7,0,324.7ZM547.7,178.7h-191.5s-.2,0-.2,0c-45,2.6-85.5,29.3-103,68-11.8,26-11.1,54.6-10.4,82.3.2,9.8.5,19.9.2,29.6H59.7V104.4c0-24.6,20-44.7,44.7-44.7h398.7c24.6,0,44.7,20,44.7,44.7v74.4Z"/>
  </g>
</svg>
