<?xml version="1.0" encoding="UTF-8"?>
<svg id="Camada_1" xmlns="http://www.w3.org/2000/svg" version="1.1" viewBox="0 0 2113.7 786.7">
  <!-- Generator: Adobe Illustrator 30.0.0, SVG Export Plug-In . SVG Version: 2.1.1 Build 123)  -->
  <defs>
    <style>
      .st0 {
        fill: #e6dcd1;
      }
    </style>
  </defs>
  <g>
    <path class="st0" d="M868.6,242.6c-51.1-39.8-73.1-60.6-73.1-89.2s15.5-45.2,60-45.2,52.9,12.5,73.7,26.8l27.9-55.9c-29.1-17.2-67.2-29.7-101.1-29.7-91.6,0-132,51.7-132,105.2s27.3,81.4,98.1,137.9c55.9,42.8,77.9,67.2,77.9,97.5s-22.6,60-69,60-67.2-15.5-95.1-32.1l-27.9,56.5c34.5,21.4,83.2,34.5,121.3,34.5,79.7,0,142.1-45.2,142.1-121.9s-27.9-85-102.8-144.5Z"/>
    <path class="st0" d="M1340,88.2c-33.4-31.6-78.2-47.4-134.4-47.4s-101,15.8-134.1,47.4c-33.1,31.6-49.7,77.3-49.7,137v107.3c0,59.8,16.6,105.4,49.7,137.1,33.2,31.6,77.9,47.4,134.1,47.4s101.1-15.8,134.4-47.4c33.4-31.6,50-77.3,50-137.1v-107.3c0-59.7-16.7-105.4-50-137ZM1310.6,367c0,39.6-32.1,71.8-71.8,71.8h-65.9c-39.6,0-71.8-32.1-71.8-71.8v-179.8c0-39.6,32.1-71.8,71.8-71.8h65.9c39.6,0,71.8,32.1,71.8,71.8v179.8Z"/>
    <polygon class="st0" points="1528.4 52.4 1449 52.4 1449 435 1527.4 505.5 1683.2 505.5 1683.2 438.8 1528.4 438.8 1528.4 52.4"/>
    <path class="st0" d="M2033.7,88.2c-33.4-31.6-78.2-47.4-134.4-47.4s-101,15.8-134.1,47.4c-33.1,31.6-49.7,77.3-49.7,137v107.3c0,59.8,16.6,105.4,49.7,137.1,33.2,31.6,77.9,47.4,134.1,47.4s101.1-15.8,134.4-47.4c33.4-31.6,50-77.3,50-137.1v-107.3c0-59.7-16.7-105.4-50-137ZM2004.1,367c0,39.6-32.1,71.8-71.8,71.8h-65.9c-39.6,0-71.8-32.1-71.8-71.8v-179.8c0-39.6,32.1-71.8,71.8-71.8h65.9c39.6,0,71.8,32.1,71.8,71.8v179.8Z"/>
  </g>
  <g>
    <path class="st0" d="M1045.6,603.2c10.9,0,19.5,2.7,26,8.2,6.4,5.4,9.6,12.8,9.6,22s-3.2,16.9-9.6,22.1c-6.4,5.2-15.1,7.8-26,7.8l-1.5.9h-23.6v40.7h-16.3v-101.7h41.5ZM1044.4,650.5c6.7,0,11.6-1.4,14.9-4.1,3.2-2.7,4.9-6.9,4.9-12.6s-1.6-9.7-4.9-12.5c-3.2-2.8-8.2-4.2-14.9-4.2h-23.9v33.3h23.9ZM1054.1,653.9l33.1,51h-19l-28.4-44.5,14.2-6.5Z"/>
    <path class="st0" d="M1135.3,706.5c-7.7,0-14.5-1.6-20.3-4.8-5.9-3.2-10.4-7.8-13.6-13.8-3.2-6-4.9-13.2-4.9-21.5s1.6-15.5,4.9-21.5c3.2-6,7.7-10.6,13.5-13.8,5.8-3.2,12.3-4.8,19.6-4.8s13.9,1.5,19.1,4.6c5.2,3.1,9.2,7.3,12,12.6,2.8,5.3,4.2,11.4,4.2,18.2s0,3.6-.2,5.2c-.1,1.6-.3,3.1-.5,4.3h-61.9v-12.6h54.7l-8.2,2.5c0-7-1.7-12.4-5.2-16.1-3.5-3.7-8.3-5.6-14.3-5.6s-8.3,1-11.6,3.1c-3.3,2.1-5.8,5.1-7.6,9.2-1.7,4.1-2.6,9-2.6,14.9s.9,10.6,2.8,14.6c1.8,4,4.5,7,7.9,9.1,3.4,2.1,7.4,3.1,12,3.1s9.3-1,12.5-2.9c3.2-2,5.7-4.7,7.6-8.2l13.1,6.2c-1.8,3.7-4.3,6.9-7.5,9.6-3.1,2.7-6.9,4.8-11.2,6.2-4.3,1.4-9,2.2-14.2,2.2Z"/>
    <path class="st0" d="M1237,627.9h17.3l-30.7,77.1h-18l-30.8-77.1h18l21.9,62.7,22.3-62.7Z"/>
    <path class="st0" d="M1299.9,706.5c-7.7,0-14.5-1.6-20.3-4.8-5.9-3.2-10.4-7.8-13.6-13.8-3.2-6-4.9-13.2-4.9-21.5s1.6-15.5,4.9-21.5c3.2-6,7.7-10.6,13.5-13.8,5.8-3.2,12.3-4.8,19.6-4.8s13.9,1.5,19.1,4.6c5.2,3.1,9.2,7.3,12,12.6,2.8,5.3,4.2,11.4,4.2,18.2s0,3.6-.2,5.2c-.1,1.6-.3,3.1-.5,4.3h-61.9v-12.6h54.7l-8.2,2.5c0-7-1.7-12.4-5.2-16.1-3.5-3.7-8.3-5.6-14.3-5.6s-8.3,1-11.6,3.1c-3.3,2.1-5.8,5.1-7.6,9.2-1.7,4.1-2.6,9-2.6,14.9s.9,10.6,2.8,14.6c1.8,4,4.5,7,7.9,9.1,3.4,2.1,7.4,3.1,12,3.1s9.3-1,12.5-2.9c3.2-2,5.7-4.7,7.6-8.2l13.1,6.2c-1.8,3.7-4.3,6.9-7.5,9.6-3.1,2.7-6.9,4.8-11.2,6.2-4.3,1.4-9,2.2-14.2,2.2Z"/>
    <path class="st0" d="M1382.5,706.5c-7.7,0-14.7-1.5-21.1-4.5-6.4-3-11.4-7.2-15.1-12.6l11.4-9.9c2.3,4.2,5.5,7.6,9.8,10.1,4.3,2.5,9.4,3.8,15.3,3.8s8.5-.8,11.2-2.5c2.8-1.6,4.2-4,4.2-6.9s-.6-3.7-1.9-5.2c-1.3-1.5-3.7-2.6-7.3-3.5l-16.2-3.4c-8.2-1.6-14.1-4.3-17.6-7.9-3.5-3.6-5.2-8.3-5.2-13.9s1.2-8.1,3.7-11.7c2.5-3.6,6.1-6.5,10.9-8.7,4.8-2.2,10.5-3.3,17.2-3.3s14.3,1.4,19.7,4.1c5.4,2.7,9.6,6.6,12.5,11.6l-11.4,9.6c-2-4.1-4.8-7.2-8.6-9.2-3.8-2-7.8-3-11.9-3s-6.1.4-8.5,1.2c-2.4.8-4.2,2-5.4,3.4-1.2,1.4-1.8,3.1-1.8,5.1s.8,3.9,2.3,5.4,4.3,2.7,8.3,3.5l17.6,3.7c7.4,1.4,12.6,3.9,15.6,7.3,3,3.4,4.5,7.6,4.5,12.6s-1.3,9.3-3.9,13c-2.6,3.8-6.3,6.7-11.1,8.7-4.8,2.1-10.6,3.1-17.3,3.1Z"/>
    <path class="st0" d="M1481.9,627.9v12.9h-57.8v-12.9h57.8ZM1455.4,605.2v76.6c0,3.8,1,6.6,3,8.3,2,1.7,4.7,2.6,8.1,2.6s5.2-.4,7.2-1.3c2.1-.9,4-2.1,5.7-3.6l3.7,12c-2.4,2.1-5.3,3.7-8.7,4.9-3.4,1.2-7.3,1.8-11.5,1.8s-8.5-.7-12.2-2.2c-3.7-1.4-6.6-3.8-8.6-7-2.1-3.2-3.1-7.5-3.2-12.7v-74.7l16.5-4.6Z"/>
    <path class="st0" d="M1504.7,614.9c-3.6,0-6.3-.9-8.2-2.7-1.9-1.8-2.9-4.3-2.9-7.6s.9-5.8,2.9-7.6c1.9-1.7,4.6-2.6,8.2-2.6s6.2.9,8.1,2.6c1.9,1.7,2.9,4.3,2.9,7.6s-1,5.8-2.9,7.6c-1.9,1.8-4.6,2.7-8.1,2.7ZM1512.8,627.9v77.1h-16.5v-77.1h16.5Z"/>
    <path class="st0" d="M1536.7,704.9v-77.1h14.6l.8,12.9c2.7-4.9,6.2-8.6,10.7-10.9,4.5-2.4,9.2-3.5,14.3-3.5s10.7,1.3,15.3,3.8c4.7,2.5,8.2,6.3,10.6,11.3,1.6-3.4,3.9-6.2,6.8-8.5,2.9-2.3,6.1-3.9,9.6-5,3.5-1.1,6.9-1.6,10.3-1.6,4.9,0,9.6,1,13.9,3.1,4.3,2.1,7.8,5.2,10.5,9.4,2.7,4.2,4,9.6,4,16.2v49.9h-16.5v-47.3c0-6.3-1.5-10.8-4.5-13.6-3-2.8-6.8-4.2-11.4-4.2s-6.9.9-9.9,2.6c-3,1.7-5.5,4.3-7.3,7.8-1.8,3.4-2.8,7.7-2.8,12.7v41.9h-16.5v-47.3c0-6.3-1.5-10.8-4.5-13.6-3-2.8-6.8-4.2-11.4-4.2s-6.2.8-9.2,2.5c-3.1,1.6-5.7,4.2-7.7,7.7-2.1,3.5-3.1,8.1-3.1,13.9v41h-16.5Z"/>
    <path class="st0" d="M1715,706.5c-7.7,0-14.5-1.6-20.3-4.8-5.9-3.2-10.4-7.8-13.6-13.8-3.2-6-4.9-13.2-4.9-21.5s1.6-15.5,4.9-21.5c3.2-6,7.7-10.6,13.5-13.8,5.8-3.2,12.3-4.8,19.6-4.8s13.9,1.5,19.1,4.6c5.2,3.1,9.2,7.3,12,12.6,2.8,5.3,4.2,11.4,4.2,18.2s0,3.6-.2,5.2c-.1,1.6-.3,3.1-.5,4.3h-61.9v-12.6h54.7l-8.2,2.5c0-7-1.7-12.4-5.2-16.1-3.5-3.7-8.3-5.6-14.3-5.6s-8.3,1-11.6,3.1c-3.3,2.1-5.8,5.1-7.6,9.2-1.7,4.1-2.6,9-2.6,14.9s.9,10.6,2.8,14.6c1.8,4,4.5,7,7.9,9.1,3.4,2.1,7.4,3.1,12,3.1s9.3-1,12.5-2.9c3.2-2,5.7-4.7,7.6-8.2l13.1,6.2c-1.8,3.7-4.3,6.9-7.5,9.6-3.1,2.7-6.9,4.8-11.2,6.2-4.3,1.4-9,2.2-14.2,2.2Z"/>
    <path class="st0" d="M1768.3,704.9v-77.1h14.6l1.1,20-2.2-2.2c1.4-4.4,3.5-8.1,6.2-11,2.7-2.9,6-5.1,9.7-6.4,3.7-1.3,7.7-2,11.9-2s10.3,1.1,14.7,3.2c4.4,2.1,7.8,5.3,10.4,9.5,2.6,4.2,3.9,9.6,3.9,16v49.9h-16.5v-44.8c0-7.6-1.6-12.9-4.7-15.8-3.1-2.9-7.1-4.4-11.8-4.4s-6.7.8-9.9,2.4c-3.2,1.6-5.8,4.1-7.9,7.6-2.1,3.5-3.2,8.2-3.2,14v41h-16.5Z"/>
    <path class="st0" d="M1910,627.9v12.9h-57.8v-12.9h57.8ZM1883.5,605.2v76.6c0,3.8,1,6.6,3,8.3,2,1.7,4.7,2.6,8.1,2.6s5.2-.4,7.2-1.3c2.1-.9,4-2.1,5.7-3.6l3.7,12c-2.4,2.1-5.3,3.7-8.7,4.9-3.4,1.2-7.3,1.8-11.5,1.8s-8.5-.7-12.2-2.2c-3.7-1.4-6.6-3.8-8.6-7-2.1-3.2-3.1-7.5-3.2-12.7v-74.7l16.5-4.6Z"/>
    <path class="st0" d="M1957.9,626.3c7.5,0,14.1,1.6,19.9,4.8,5.8,3.2,10.2,7.8,13.5,13.8,3.2,6,4.9,13.2,4.9,21.5s-1.6,15.5-4.9,21.5c-3.2,6-7.7,10.6-13.5,13.8-5.8,3.2-12.4,4.8-19.9,4.8s-14.1-1.6-19.9-4.8c-5.8-3.2-10.3-7.8-13.6-13.8-3.3-6-4.9-13.2-4.9-21.5s1.6-15.5,4.9-21.5c3.3-6,7.8-10.6,13.6-13.8,5.8-3.2,12.4-4.8,19.9-4.8ZM1957.9,639.3c-4.6,0-8.6,1.1-11.8,3.2-3.2,2.1-5.7,5.2-7.5,9.2-1.7,4-2.6,8.9-2.6,14.8s.9,10.7,2.6,14.7c1.7,4.1,4.2,7.1,7.5,9.2,3.2,2.1,7.2,3.2,11.8,3.2s8.5-1.1,11.7-3.2c3.2-2.1,5.6-5.2,7.4-9.2,1.7-4.1,2.6-9,2.6-14.7s-.9-10.8-2.6-14.8c-1.7-4-4.2-7.1-7.4-9.2-3.2-2.1-7.1-3.2-11.7-3.2Z"/>
    <path class="st0" d="M2044.3,706.5c-7.7,0-14.7-1.5-21.1-4.5-6.4-3-11.4-7.2-15.1-12.6l11.4-9.9c2.3,4.2,5.5,7.6,9.8,10.1,4.3,2.5,9.4,3.8,15.3,3.8s8.5-.8,11.2-2.5c2.8-1.6,4.2-4,4.2-6.9s-.6-3.7-1.9-5.2c-1.3-1.5-3.7-2.6-7.3-3.5l-16.2-3.4c-8.2-1.6-14.1-4.3-17.6-7.9-3.5-3.6-5.2-8.3-5.2-13.9s1.2-8.1,3.7-11.7c2.5-3.6,6.1-6.5,10.9-8.7,4.8-2.2,10.5-3.3,17.2-3.3s14.3,1.4,19.7,4.1c5.4,2.7,9.6,6.6,12.5,11.6l-11.4,9.6c-2-4.1-4.8-7.2-8.6-9.2-3.8-2-7.8-3-11.9-3s-6.1.4-8.5,1.2c-2.4.8-4.2,2-5.4,3.4-1.2,1.4-1.8,3.1-1.8,5.1s.8,3.9,2.3,5.4,4.3,2.7,8.3,3.5l17.6,3.7c7.4,1.4,12.6,3.9,15.6,7.3,3,3.4,4.5,7.6,4.5,12.6s-1.3,9.3-3.9,13c-2.6,3.8-6.3,6.7-11.1,8.7-4.8,2.1-10.6,3.1-17.3,3.1Z"/>
  </g>
  <path class="st0" d="M503.1,29.9H104.4c-41.1,0-74.5,33.4-74.5,74.5v537c0,41.1,33.4,74.5,74.5,74.5h398.7c41.1,0,74.5-33.4,74.5-74.5V104.4c0-41.1-33.4-74.5-74.5-74.5ZM242.7,686H104.4c-24.6,0-44.7-20-44.7-44.7v-252.9h182.9v297.6ZM547.7,641.3c0,24.6-20,44.7-44.7,44.7h-230.6v-297.6h23.8l251.4,182.9v70ZM547.7,533.2l-244.8-176.4c-27-23.3-36.6-56.4-25.8-88.5,11.4-33.9,42.8-57.3,80-59.7h190.6s0,324.7,0,324.7ZM547.7,178.7h-191.5s-.2,0-.2,0c-45,2.6-85.5,29.3-103,68-11.8,26-11.1,54.6-10.4,82.3.2,9.8.5,19.9.2,29.6H59.7V104.4c0-24.6,20-44.7,44.7-44.7h398.7c24.6,0,44.7,20,44.7,44.7v74.4Z"/>
</svg>